<mxfile host="app.diagrams.net" modified="2024-06-16T13:55:21.626Z" agent="Mozilla/5.0 (Macintosh; Intel Mac OS X 10_15_7) AppleWebKit/537.36 (KHTML, like Gecko) Chrome/125.0.0.0 Safari/537.36" etag="xMvOYo0WX8ndjdCXdppX" version="24.5.2" type="device">
  <diagram id="C5RBs43oDa-KdzZeNtuy" name="Page-1">
    <mxGraphModel dx="1418" dy="822" grid="1" gridSize="10" guides="1" tooltips="1" connect="1" arrows="1" fold="1" page="1" pageScale="1" pageWidth="827" pageHeight="1169" math="0" shadow="0">
      <root>
        <mxCell id="WIyWlLk6GJQsqaUBKTNV-0" />
        <mxCell id="WIyWlLk6GJQsqaUBKTNV-1" parent="WIyWlLk6GJQsqaUBKTNV-0" />
        <mxCell id="zkfFHV4jXpPFQw0GAbJ--6" value="ParkingLot" style="swimlane;fontStyle=0;align=center;verticalAlign=top;childLayout=stackLayout;horizontal=1;startSize=26;horizontalStack=0;resizeParent=1;resizeLast=0;collapsible=1;marginBottom=0;rounded=0;shadow=0;strokeWidth=1;" parent="WIyWlLk6GJQsqaUBKTNV-1" vertex="1">
          <mxGeometry x="570" y="410" width="390" height="350" as="geometry">
            <mxRectangle x="130" y="380" width="160" height="26" as="alternateBounds" />
          </mxGeometry>
        </mxCell>
        <mxCell id="zkfFHV4jXpPFQw0GAbJ--9" value="" style="line;html=1;strokeWidth=1;align=left;verticalAlign=middle;spacingTop=-1;spacingLeft=3;spacingRight=3;rotatable=0;labelPosition=right;points=[];portConstraint=eastwest;" parent="zkfFHV4jXpPFQw0GAbJ--6" vertex="1">
          <mxGeometry y="26" width="390" height="8" as="geometry" />
        </mxCell>
        <mxCell id="zkfFHV4jXpPFQw0GAbJ--8" value="- parkingLotId : Int&#xa;- instance : ParkingLot&#xa;- parkingFloors: ArrayList&lt;ParkingFloor&gt;" style="text;align=left;verticalAlign=top;spacingLeft=4;spacingRight=4;overflow=hidden;rotatable=0;points=[[0,0.5],[1,0.5]];portConstraint=eastwest;rounded=0;shadow=0;html=0;" parent="zkfFHV4jXpPFQw0GAbJ--6" vertex="1">
          <mxGeometry y="34" width="390" height="88" as="geometry" />
        </mxCell>
        <mxCell id="zkfFHV4jXpPFQw0GAbJ--11" value="+ getInstance() : ParkingLot&#xa;+ showCapacity ( ParkingSlot)&#xa;&#xa;+ park(Vehicle)&#xa;&#xa;+ isSpotAvailable(Vehicle)&#xa;+ vacate(Ticket)" style="text;align=left;verticalAlign=top;spacingLeft=4;spacingRight=4;overflow=hidden;rotatable=0;points=[[0,0.5],[1,0.5]];portConstraint=eastwest;" parent="zkfFHV4jXpPFQw0GAbJ--6" vertex="1">
          <mxGeometry y="122" width="390" height="192" as="geometry" />
        </mxCell>
        <mxCell id="U56kYTCRQWNbP8-CwsrU-1" value="&lt;h1 style=&quot;margin-top: 0px;&quot;&gt;Entities&lt;/h1&gt;&lt;div&gt;1. ParkingLot&lt;/div&gt;&lt;div&gt;2. ParkingSlots&lt;/div&gt;&lt;div&gt;3. Vehicle&lt;/div&gt;&lt;div&gt;4. Payment&lt;/div&gt;" style="text;html=1;whiteSpace=wrap;overflow=hidden;rounded=0;" vertex="1" parent="WIyWlLk6GJQsqaUBKTNV-1">
          <mxGeometry x="50" y="50" width="180" height="120" as="geometry" />
        </mxCell>
        <mxCell id="U56kYTCRQWNbP8-CwsrU-2" value="&lt;h1 style=&quot;margin-top: 0px;&quot;&gt;Functionalities&lt;/h1&gt;&lt;div&gt;&lt;span style=&quot;color: rgb(36, 36, 36); font-family: source-code-pro, Menlo, Monaco, &amp;quot;Courier New&amp;quot;, Courier, monospace; font-size: 14px; letter-spacing: -0.308px; white-space: pre; background-color: rgb(249, 249, 249);&quot;&gt; The parking lot should have multiple floors where customers can park their cars.&lt;/span&gt;&lt;br style=&quot;box-sizing: inherit; color: rgb(36, 36, 36); font-family: source-code-pro, Menlo, Monaco, &amp;quot;Courier New&amp;quot;, Courier, monospace; font-size: 14px; letter-spacing: -0.308px; white-space: pre; background-color: rgb(249, 249, 249);&quot;&gt;&lt;span style=&quot;box-sizing: inherit; font-weight: 700; font-family: source-code-pro, Menlo, Monaco, &amp;quot;Courier New&amp;quot;, Courier, monospace; color: rgb(36, 36, 36); font-size: 14px; letter-spacing: -0.308px; white-space: pre; background-color: rgb(249, 249, 249);&quot; class=&quot;ou fq&quot;&gt;-&lt;/span&gt;&lt;span style=&quot;color: rgb(36, 36, 36); font-family: source-code-pro, Menlo, Monaco, &amp;quot;Courier New&amp;quot;, Courier, monospace; font-size: 14px; letter-spacing: -0.308px; white-space: pre; background-color: rgb(249, 249, 249);&quot;&gt; The parking lot should have multiple entry and exit points.&lt;/span&gt;&lt;br style=&quot;box-sizing: inherit; color: rgb(36, 36, 36); font-family: source-code-pro, Menlo, Monaco, &amp;quot;Courier New&amp;quot;, Courier, monospace; font-size: 14px; letter-spacing: -0.308px; white-space: pre; background-color: rgb(249, 249, 249);&quot;&gt;&lt;span style=&quot;box-sizing: inherit; font-weight: 700; font-family: source-code-pro, Menlo, Monaco, &amp;quot;Courier New&amp;quot;, Courier, monospace; color: rgb(36, 36, 36); font-size: 14px; letter-spacing: -0.308px; white-space: pre; background-color: rgb(249, 249, 249);&quot; class=&quot;ou fq&quot;&gt;-&lt;/span&gt;&lt;span style=&quot;color: rgb(36, 36, 36); font-family: source-code-pro, Menlo, Monaco, &amp;quot;Courier New&amp;quot;, Courier, monospace; font-size: 14px; letter-spacing: -0.308px; white-space: pre; background-color: rgb(249, 249, 249);&quot;&gt; Customers can collect a parking ticket from the entry points and can pay the parking fee at the exit points to the parking attendant or automated exit panel&lt;/span&gt;&lt;br style=&quot;box-sizing: inherit; color: rgb(36, 36, 36); font-family: source-code-pro, Menlo, Monaco, &amp;quot;Courier New&amp;quot;, Courier, monospace; font-size: 14px; letter-spacing: -0.308px; white-space: pre; background-color: rgb(249, 249, 249);&quot;&gt;&lt;span style=&quot;box-sizing: inherit; font-weight: 700; font-family: source-code-pro, Menlo, Monaco, &amp;quot;Courier New&amp;quot;, Courier, monospace; color: rgb(36, 36, 36); font-size: 14px; letter-spacing: -0.308px; white-space: pre; background-color: rgb(249, 249, 249);&quot; class=&quot;ou fq&quot;&gt;-&lt;/span&gt;&lt;span style=&quot;color: rgb(36, 36, 36); font-family: source-code-pro, Menlo, Monaco, &amp;quot;Courier New&amp;quot;, Courier, monospace; font-size: 14px; letter-spacing: -0.308px; white-space: pre; background-color: rgb(249, 249, 249);&quot;&gt; Customers can pay via both cash and credit cards.&lt;/span&gt;&lt;br style=&quot;box-sizing: inherit; color: rgb(36, 36, 36); font-family: source-code-pro, Menlo, Monaco, &amp;quot;Courier New&amp;quot;, Courier, monospace; font-size: 14px; letter-spacing: -0.308px; white-space: pre; background-color: rgb(249, 249, 249);&quot;&gt;&lt;span style=&quot;box-sizing: inherit; font-weight: 700; font-family: source-code-pro, Menlo, Monaco, &amp;quot;Courier New&amp;quot;, Courier, monospace; color: rgb(36, 36, 36); font-size: 14px; letter-spacing: -0.308px; white-space: pre; background-color: rgb(249, 249, 249);&quot; class=&quot;ou fq&quot;&gt;-&lt;/span&gt;&lt;span style=&quot;color: rgb(36, 36, 36); font-family: source-code-pro, Menlo, Monaco, &amp;quot;Courier New&amp;quot;, Courier, monospace; font-size: 14px; letter-spacing: -0.308px; white-space: pre; background-color: rgb(249, 249, 249);&quot;&gt; The system should not allow more vehicles than the maximum capacity of the parking lot. If the parking is full, the system should be able to show a message at the entrance panel and on the parking display board on the ground floor.&lt;/span&gt;&lt;br style=&quot;box-sizing: inherit; color: rgb(36, 36, 36); font-family: source-code-pro, Menlo, Monaco, &amp;quot;Courier New&amp;quot;, Courier, monospace; font-size: 14px; letter-spacing: -0.308px; white-space: pre; background-color: rgb(249, 249, 249);&quot;&gt;&lt;span style=&quot;box-sizing: inherit; font-weight: 700; font-family: source-code-pro, Menlo, Monaco, &amp;quot;Courier New&amp;quot;, Courier, monospace; color: rgb(36, 36, 36); font-size: 14px; letter-spacing: -0.308px; white-space: pre; background-color: rgb(249, 249, 249);&quot; class=&quot;ou fq&quot;&gt;-&lt;/span&gt;&lt;span style=&quot;color: rgb(36, 36, 36); font-family: source-code-pro, Menlo, Monaco, &amp;quot;Courier New&amp;quot;, Courier, monospace; font-size: 14px; letter-spacing: -0.308px; white-space: pre; background-color: rgb(249, 249, 249);&quot;&gt; Each parking floor will have many parking spots. The system should support multiple types of parking spots such as Compact, Large, Disabled, Motorcycle, etc.&lt;/span&gt;&lt;br style=&quot;box-sizing: inherit; color: rgb(36, 36, 36); font-family: source-code-pro, Menlo, Monaco, &amp;quot;Courier New&amp;quot;, Courier, monospace; font-size: 14px; letter-spacing: -0.308px; white-space: pre; background-color: rgb(249, 249, 249);&quot;&gt;&lt;span style=&quot;box-sizing: inherit; font-weight: 700; font-family: source-code-pro, Menlo, Monaco, &amp;quot;Courier New&amp;quot;, Courier, monospace; color: rgb(36, 36, 36); font-size: 14px; letter-spacing: -0.308px; white-space: pre; background-color: rgb(249, 249, 249);&quot; class=&quot;ou fq&quot;&gt;-&lt;/span&gt;&lt;span style=&quot;color: rgb(36, 36, 36); font-family: source-code-pro, Menlo, Monaco, &amp;quot;Courier New&amp;quot;, Courier, monospace; font-size: 14px; letter-spacing: -0.308px; white-space: pre; background-color: rgb(249, 249, 249);&quot;&gt; The system should support parking for different types of vehicles like car, truck, van, motorcycle, etc.&lt;/span&gt;&lt;br style=&quot;box-sizing: inherit; color: rgb(36, 36, 36); font-family: source-code-pro, Menlo, Monaco, &amp;quot;Courier New&amp;quot;, Courier, monospace; font-size: 14px; letter-spacing: -0.308px; white-space: pre; background-color: rgb(249, 249, 249);&quot;&gt;&lt;span style=&quot;box-sizing: inherit; font-weight: 700; font-family: source-code-pro, Menlo, Monaco, &amp;quot;Courier New&amp;quot;, Courier, monospace; color: rgb(36, 36, 36); font-size: 14px; letter-spacing: -0.308px; white-space: pre; background-color: rgb(249, 249, 249);&quot; class=&quot;ou fq&quot;&gt;-&lt;/span&gt;&lt;span style=&quot;color: rgb(36, 36, 36); font-family: source-code-pro, Menlo, Monaco, &amp;quot;Courier New&amp;quot;, Courier, monospace; font-size: 14px; letter-spacing: -0.308px; white-space: pre; background-color: rgb(249, 249, 249);&quot;&gt; Each parking floor should have a display board showing any free parking spot for each spot type.&lt;/span&gt;&lt;br style=&quot;box-sizing: inherit; color: rgb(36, 36, 36); font-family: source-code-pro, Menlo, Monaco, &amp;quot;Courier New&amp;quot;, Courier, monospace; font-size: 14px; letter-spacing: -0.308px; white-space: pre; background-color: rgb(249, 249, 249);&quot;&gt;&lt;span style=&quot;box-sizing: inherit; font-weight: 700; font-family: source-code-pro, Menlo, Monaco, &amp;quot;Courier New&amp;quot;, Courier, monospace; color: rgb(36, 36, 36); font-size: 14px; letter-spacing: -0.308px; white-space: pre; background-color: rgb(249, 249, 249);&quot; class=&quot;ou fq&quot;&gt;-&lt;/span&gt;&lt;span style=&quot;color: rgb(36, 36, 36); font-family: source-code-pro, Menlo, Monaco, &amp;quot;Courier New&amp;quot;, Courier, monospace; font-size: 14px; letter-spacing: -0.308px; white-space: pre; background-color: rgb(249, 249, 249);&quot;&gt; The system should support a per-hour parking fee model. For example, customers have to pay some amount based on the Vehicle type.&lt;/span&gt;&lt;br style=&quot;box-sizing: inherit; color: rgb(36, 36, 36); font-family: source-code-pro, Menlo, Monaco, &amp;quot;Courier New&amp;quot;, Courier, monospace; font-size: 14px; letter-spacing: -0.308px; white-space: pre; background-color: rgb(249, 249, 249);&quot;&gt;&lt;span style=&quot;box-sizing: inherit; font-weight: 700; font-family: source-code-pro, Menlo, Monaco, &amp;quot;Courier New&amp;quot;, Courier, monospace; color: rgb(36, 36, 36); font-size: 14px; letter-spacing: -0.308px; white-space: pre; background-color: rgb(249, 249, 249);&quot; class=&quot;ou fq&quot;&gt;-&lt;/span&gt;&lt;span style=&quot;color: rgb(36, 36, 36); font-family: source-code-pro, Menlo, Monaco, &amp;quot;Courier New&amp;quot;, Courier, monospace; font-size: 14px; letter-spacing: -0.308px; white-space: pre; background-color: rgb(249, 249, 249);&quot;&gt; Admins should be able to add parking floors and parking spot.&lt;/span&gt;&lt;br&gt;&lt;/div&gt;" style="text;html=1;whiteSpace=wrap;overflow=hidden;rounded=0;" vertex="1" parent="WIyWlLk6GJQsqaUBKTNV-1">
          <mxGeometry x="450" y="50" width="1920" height="240" as="geometry" />
        </mxCell>
        <mxCell id="U56kYTCRQWNbP8-CwsrU-4" value="ParkingSlot" style="swimlane;fontStyle=1;align=center;verticalAlign=top;childLayout=stackLayout;horizontal=1;startSize=26;horizontalStack=0;resizeParent=1;resizeParentMax=0;resizeLast=0;collapsible=1;marginBottom=0;whiteSpace=wrap;html=1;" vertex="1" parent="WIyWlLk6GJQsqaUBKTNV-1">
          <mxGeometry x="1630" y="470" width="170" height="230" as="geometry" />
        </mxCell>
        <mxCell id="U56kYTCRQWNbP8-CwsrU-5" value="- slotType : ParkingSlotType&lt;div&gt;- vehicle: Vehicle&lt;br&gt;&lt;div&gt;- feePerHour : Double&lt;/div&gt;&lt;div&gt;- vehicleSupport : List&amp;lt;Vehicel&amp;gt;&lt;/div&gt;&lt;/div&gt;" style="text;strokeColor=none;fillColor=none;align=left;verticalAlign=top;spacingLeft=4;spacingRight=4;overflow=hidden;rotatable=0;points=[[0,0.5],[1,0.5]];portConstraint=eastwest;whiteSpace=wrap;html=1;" vertex="1" parent="U56kYTCRQWNbP8-CwsrU-4">
          <mxGeometry y="26" width="170" height="44" as="geometry" />
        </mxCell>
        <mxCell id="U56kYTCRQWNbP8-CwsrU-6" value="" style="line;strokeWidth=1;fillColor=none;align=left;verticalAlign=middle;spacingTop=-1;spacingLeft=3;spacingRight=3;rotatable=0;labelPosition=right;points=[];portConstraint=eastwest;strokeColor=inherit;" vertex="1" parent="U56kYTCRQWNbP8-CwsrU-4">
          <mxGeometry y="70" width="170" height="90" as="geometry" />
        </mxCell>
        <mxCell id="U56kYTCRQWNbP8-CwsrU-8" value="+ getPerHourFee()&lt;div&gt;+ isVehicleSupported(Vehicle)&lt;/div&gt;&lt;div&gt;&lt;br&gt;&lt;div&gt;&lt;br&gt;&lt;/div&gt;&lt;/div&gt;" style="text;html=1;align=center;verticalAlign=middle;resizable=0;points=[];autosize=1;strokeColor=none;fillColor=none;" vertex="1" parent="U56kYTCRQWNbP8-CwsrU-4">
          <mxGeometry y="160" width="170" height="70" as="geometry" />
        </mxCell>
        <mxCell id="U56kYTCRQWNbP8-CwsrU-9" value="" style="endArrow=diamondThin;endFill=1;endSize=24;html=1;rounded=0;exitX=0;exitY=0.5;exitDx=0;exitDy=0;entryX=1.003;entryY=0.031;entryDx=0;entryDy=0;entryPerimeter=0;" edge="1" parent="WIyWlLk6GJQsqaUBKTNV-1">
          <mxGeometry width="160" relative="1" as="geometry">
            <mxPoint x="1170" y="471.05" as="sourcePoint" />
            <mxPoint x="961.1700000000001" y="470.002" as="targetPoint" />
          </mxGeometry>
        </mxCell>
        <mxCell id="U56kYTCRQWNbP8-CwsrU-10" value="Floor" style="swimlane;fontStyle=1;align=center;verticalAlign=top;childLayout=stackLayout;horizontal=1;startSize=26;horizontalStack=0;resizeParent=1;resizeParentMax=0;resizeLast=0;collapsible=1;marginBottom=0;whiteSpace=wrap;html=1;" vertex="1" parent="WIyWlLk6GJQsqaUBKTNV-1">
          <mxGeometry x="1170" y="420" width="210" height="258" as="geometry" />
        </mxCell>
        <mxCell id="U56kYTCRQWNbP8-CwsrU-11" value="- parkingSpots : HashMap&amp;lt;ParkingSpotType, Array&amp;lt;ParkingSpot&amp;gt;&amp;gt;&lt;div&gt;- floorNumber : Int&lt;br&gt;&lt;div&gt;&lt;br&gt;&lt;/div&gt;&lt;/div&gt;" style="text;strokeColor=none;fillColor=none;align=left;verticalAlign=top;spacingLeft=4;spacingRight=4;overflow=hidden;rotatable=0;points=[[0,0.5],[1,0.5]];portConstraint=eastwest;whiteSpace=wrap;html=1;" vertex="1" parent="U56kYTCRQWNbP8-CwsrU-10">
          <mxGeometry y="26" width="210" height="74" as="geometry" />
        </mxCell>
        <mxCell id="U56kYTCRQWNbP8-CwsrU-12" value="" style="line;strokeWidth=1;fillColor=none;align=left;verticalAlign=middle;spacingTop=-1;spacingLeft=3;spacingRight=3;rotatable=0;labelPosition=right;points=[];portConstraint=eastwest;strokeColor=inherit;" vertex="1" parent="U56kYTCRQWNbP8-CwsrU-10">
          <mxGeometry y="100" width="210" height="8" as="geometry" />
        </mxCell>
        <mxCell id="U56kYTCRQWNbP8-CwsrU-13" value="+ getParkingFloor()&lt;div&gt;+ getParkingSlot(Vehicle)&lt;/div&gt;&lt;div&gt;+ isSpotAvailable(Vehicle)&lt;/div&gt;&lt;div&gt;- getSportTypeForVehicle(Vehicle)&lt;/div&gt;&lt;div&gt;+ displayBoard()&lt;/div&gt;&lt;div&gt;&lt;br&gt;&lt;/div&gt;" style="text;strokeColor=none;fillColor=none;align=left;verticalAlign=top;spacingLeft=4;spacingRight=4;overflow=hidden;rotatable=0;points=[[0,0.5],[1,0.5]];portConstraint=eastwest;whiteSpace=wrap;html=1;" vertex="1" parent="U56kYTCRQWNbP8-CwsrU-10">
          <mxGeometry y="108" width="210" height="150" as="geometry" />
        </mxCell>
        <mxCell id="U56kYTCRQWNbP8-CwsrU-14" value="" style="endArrow=diamondThin;endFill=1;endSize=24;html=1;rounded=0;entryX=1;entryY=0.878;entryDx=0;entryDy=0;entryPerimeter=0;exitX=-0.006;exitY=0.341;exitDx=0;exitDy=0;exitPerimeter=0;" edge="1" parent="WIyWlLk6GJQsqaUBKTNV-1" source="U56kYTCRQWNbP8-CwsrU-5" target="U56kYTCRQWNbP8-CwsrU-11">
          <mxGeometry width="160" relative="1" as="geometry">
            <mxPoint x="1370" y="340" as="sourcePoint" />
            <mxPoint x="1530" y="340" as="targetPoint" />
          </mxGeometry>
        </mxCell>
        <mxCell id="U56kYTCRQWNbP8-CwsrU-15" value="&lt;i&gt;Gate&lt;/i&gt;" style="swimlane;fontStyle=1;align=center;verticalAlign=top;childLayout=stackLayout;horizontal=1;startSize=26;horizontalStack=0;resizeParent=1;resizeParentMax=0;resizeLast=0;collapsible=1;marginBottom=0;whiteSpace=wrap;html=1;" vertex="1" parent="WIyWlLk6GJQsqaUBKTNV-1">
          <mxGeometry x="660" y="930" width="223" height="200" as="geometry" />
        </mxCell>
        <mxCell id="U56kYTCRQWNbP8-CwsrU-20" value="- parkingLot : ParkingLot" style="text;html=1;align=center;verticalAlign=middle;resizable=0;points=[];autosize=1;strokeColor=none;fillColor=none;" vertex="1" parent="U56kYTCRQWNbP8-CwsrU-15">
          <mxGeometry y="26" width="223" height="30" as="geometry" />
        </mxCell>
        <mxCell id="U56kYTCRQWNbP8-CwsrU-17" value="" style="line;strokeWidth=1;fillColor=none;align=left;verticalAlign=middle;spacingTop=-1;spacingLeft=3;spacingRight=3;rotatable=0;labelPosition=right;points=[];portConstraint=eastwest;strokeColor=inherit;" vertex="1" parent="U56kYTCRQWNbP8-CwsrU-15">
          <mxGeometry y="56" width="223" height="74" as="geometry" />
        </mxCell>
        <mxCell id="U56kYTCRQWNbP8-CwsrU-19" value="+ getGateType()&lt;div&gt;+ Ticket : checkAvailability(ParkingSlot)&lt;/div&gt;&lt;div&gt;+ makePayment( Ticket)&lt;/div&gt;&lt;div&gt;&lt;br&gt;&lt;/div&gt;" style="text;html=1;align=center;verticalAlign=middle;resizable=0;points=[];autosize=1;strokeColor=none;fillColor=none;" vertex="1" parent="U56kYTCRQWNbP8-CwsrU-15">
          <mxGeometry y="130" width="223" height="70" as="geometry" />
        </mxCell>
        <mxCell id="U56kYTCRQWNbP8-CwsrU-29" value="&lt;i&gt;EntryGate&lt;/i&gt;" style="swimlane;fontStyle=1;align=center;verticalAlign=top;childLayout=stackLayout;horizontal=1;startSize=26;horizontalStack=0;resizeParent=1;resizeParentMax=0;resizeLast=0;collapsible=1;marginBottom=0;whiteSpace=wrap;html=1;" vertex="1" parent="WIyWlLk6GJQsqaUBKTNV-1">
          <mxGeometry x="460" y="1260" width="223" height="200" as="geometry" />
        </mxCell>
        <mxCell id="U56kYTCRQWNbP8-CwsrU-30" value="- parkingLot : ParkingLot" style="text;html=1;align=center;verticalAlign=middle;resizable=0;points=[];autosize=1;strokeColor=none;fillColor=none;" vertex="1" parent="U56kYTCRQWNbP8-CwsrU-29">
          <mxGeometry y="26" width="223" height="30" as="geometry" />
        </mxCell>
        <mxCell id="U56kYTCRQWNbP8-CwsrU-31" value="" style="line;strokeWidth=1;fillColor=none;align=left;verticalAlign=middle;spacingTop=-1;spacingLeft=3;spacingRight=3;rotatable=0;labelPosition=right;points=[];portConstraint=eastwest;strokeColor=inherit;" vertex="1" parent="U56kYTCRQWNbP8-CwsrU-29">
          <mxGeometry y="56" width="223" height="74" as="geometry" />
        </mxCell>
        <mxCell id="U56kYTCRQWNbP8-CwsrU-32" value="+ getGateType()&lt;div&gt;+ Ticket : checkAvailability(ParkingSlot)&lt;/div&gt;&lt;div&gt;+ makePayment( Ticket)&lt;/div&gt;&lt;div&gt;&lt;br&gt;&lt;/div&gt;" style="text;html=1;align=center;verticalAlign=middle;resizable=0;points=[];autosize=1;strokeColor=none;fillColor=none;" vertex="1" parent="U56kYTCRQWNbP8-CwsrU-29">
          <mxGeometry y="130" width="223" height="70" as="geometry" />
        </mxCell>
        <mxCell id="U56kYTCRQWNbP8-CwsrU-33" value="&lt;i&gt;ExitGate&lt;/i&gt;" style="swimlane;fontStyle=1;align=center;verticalAlign=top;childLayout=stackLayout;horizontal=1;startSize=26;horizontalStack=0;resizeParent=1;resizeParentMax=0;resizeLast=0;collapsible=1;marginBottom=0;whiteSpace=wrap;html=1;" vertex="1" parent="WIyWlLk6GJQsqaUBKTNV-1">
          <mxGeometry x="930" y="1260" width="223" height="200" as="geometry" />
        </mxCell>
        <mxCell id="U56kYTCRQWNbP8-CwsrU-34" value="- parkingLot : ParkingLot" style="text;html=1;align=center;verticalAlign=middle;resizable=0;points=[];autosize=1;strokeColor=none;fillColor=none;" vertex="1" parent="U56kYTCRQWNbP8-CwsrU-33">
          <mxGeometry y="26" width="223" height="30" as="geometry" />
        </mxCell>
        <mxCell id="U56kYTCRQWNbP8-CwsrU-35" value="" style="line;strokeWidth=1;fillColor=none;align=left;verticalAlign=middle;spacingTop=-1;spacingLeft=3;spacingRight=3;rotatable=0;labelPosition=right;points=[];portConstraint=eastwest;strokeColor=inherit;" vertex="1" parent="U56kYTCRQWNbP8-CwsrU-33">
          <mxGeometry y="56" width="223" height="74" as="geometry" />
        </mxCell>
        <mxCell id="U56kYTCRQWNbP8-CwsrU-36" value="+ getGateType()&lt;div&gt;+ Ticket : checkAvailability(ParkingSlot)&lt;/div&gt;&lt;div&gt;+ makePayment( Ticket)&lt;/div&gt;&lt;div&gt;&lt;br&gt;&lt;/div&gt;" style="text;html=1;align=center;verticalAlign=middle;resizable=0;points=[];autosize=1;strokeColor=none;fillColor=none;" vertex="1" parent="U56kYTCRQWNbP8-CwsrU-33">
          <mxGeometry y="130" width="223" height="70" as="geometry" />
        </mxCell>
        <mxCell id="U56kYTCRQWNbP8-CwsrU-37" value="" style="endArrow=block;dashed=1;endFill=0;endSize=12;html=1;rounded=0;exitX=0.448;exitY=0;exitDx=0;exitDy=0;exitPerimeter=0;entryX=0.511;entryY=1.043;entryDx=0;entryDy=0;entryPerimeter=0;" edge="1" parent="WIyWlLk6GJQsqaUBKTNV-1" source="U56kYTCRQWNbP8-CwsrU-29" target="U56kYTCRQWNbP8-CwsrU-19">
          <mxGeometry width="160" relative="1" as="geometry">
            <mxPoint x="880" y="1150" as="sourcePoint" />
            <mxPoint x="1040" y="1150" as="targetPoint" />
          </mxGeometry>
        </mxCell>
        <mxCell id="U56kYTCRQWNbP8-CwsrU-38" value="" style="endArrow=block;dashed=1;endFill=0;endSize=12;html=1;rounded=0;" edge="1" parent="WIyWlLk6GJQsqaUBKTNV-1">
          <mxGeometry width="160" relative="1" as="geometry">
            <mxPoint x="1050" y="1250" as="sourcePoint" />
            <mxPoint x="770" y="1140" as="targetPoint" />
          </mxGeometry>
        </mxCell>
        <mxCell id="U56kYTCRQWNbP8-CwsrU-39" value="" style="endArrow=diamondThin;endFill=0;endSize=24;html=1;rounded=0;exitX=0.5;exitY=0;exitDx=0;exitDy=0;entryX=0.5;entryY=1;entryDx=0;entryDy=0;" edge="1" parent="WIyWlLk6GJQsqaUBKTNV-1" source="U56kYTCRQWNbP8-CwsrU-15" target="zkfFHV4jXpPFQw0GAbJ--6">
          <mxGeometry width="160" relative="1" as="geometry">
            <mxPoint x="880" y="1030" as="sourcePoint" />
            <mxPoint x="1040" y="1030" as="targetPoint" />
            <Array as="points">
              <mxPoint x="772" y="770" />
            </Array>
          </mxGeometry>
        </mxCell>
        <mxCell id="U56kYTCRQWNbP8-CwsrU-53" value="Compact" style="swimlane;fontStyle=1;align=center;verticalAlign=top;childLayout=stackLayout;horizontal=1;startSize=26;horizontalStack=0;resizeParent=1;resizeParentMax=0;resizeLast=0;collapsible=1;marginBottom=0;whiteSpace=wrap;html=1;" vertex="1" parent="WIyWlLk6GJQsqaUBKTNV-1">
          <mxGeometry x="1470" y="800" width="170" height="230" as="geometry" />
        </mxCell>
        <mxCell id="U56kYTCRQWNbP8-CwsrU-54" value="- slotType : ParkingSlotType&lt;div&gt;- vehicle: Vehicle&lt;br&gt;&lt;div&gt;- feePerHour : Double&lt;/div&gt;&lt;div&gt;- vehicleSupport : List&amp;lt;Vehicel&amp;gt;&lt;/div&gt;&lt;/div&gt;" style="text;strokeColor=none;fillColor=none;align=left;verticalAlign=top;spacingLeft=4;spacingRight=4;overflow=hidden;rotatable=0;points=[[0,0.5],[1,0.5]];portConstraint=eastwest;whiteSpace=wrap;html=1;" vertex="1" parent="U56kYTCRQWNbP8-CwsrU-53">
          <mxGeometry y="26" width="170" height="44" as="geometry" />
        </mxCell>
        <mxCell id="U56kYTCRQWNbP8-CwsrU-55" value="" style="line;strokeWidth=1;fillColor=none;align=left;verticalAlign=middle;spacingTop=-1;spacingLeft=3;spacingRight=3;rotatable=0;labelPosition=right;points=[];portConstraint=eastwest;strokeColor=inherit;" vertex="1" parent="U56kYTCRQWNbP8-CwsrU-53">
          <mxGeometry y="70" width="170" height="90" as="geometry" />
        </mxCell>
        <mxCell id="U56kYTCRQWNbP8-CwsrU-56" value="+ getPerHourFee()&lt;div&gt;+ isVehicleSupported(Vehicle)&lt;/div&gt;&lt;div&gt;&lt;br&gt;&lt;div&gt;&lt;br&gt;&lt;/div&gt;&lt;/div&gt;" style="text;html=1;align=center;verticalAlign=middle;resizable=0;points=[];autosize=1;strokeColor=none;fillColor=none;" vertex="1" parent="U56kYTCRQWNbP8-CwsrU-53">
          <mxGeometry y="160" width="170" height="70" as="geometry" />
        </mxCell>
        <mxCell id="U56kYTCRQWNbP8-CwsrU-57" value="Large" style="swimlane;fontStyle=1;align=center;verticalAlign=top;childLayout=stackLayout;horizontal=1;startSize=26;horizontalStack=0;resizeParent=1;resizeParentMax=0;resizeLast=0;collapsible=1;marginBottom=0;whiteSpace=wrap;html=1;" vertex="1" parent="WIyWlLk6GJQsqaUBKTNV-1">
          <mxGeometry x="1720" y="800" width="170" height="230" as="geometry" />
        </mxCell>
        <mxCell id="U56kYTCRQWNbP8-CwsrU-58" value="- slotType : ParkingSlotType&lt;div&gt;- vehicle: Vehicle&lt;br&gt;&lt;div&gt;- feePerHour : Double&lt;/div&gt;&lt;div&gt;- vehicleSupport : List&amp;lt;Vehicel&amp;gt;&lt;/div&gt;&lt;/div&gt;" style="text;strokeColor=none;fillColor=none;align=left;verticalAlign=top;spacingLeft=4;spacingRight=4;overflow=hidden;rotatable=0;points=[[0,0.5],[1,0.5]];portConstraint=eastwest;whiteSpace=wrap;html=1;" vertex="1" parent="U56kYTCRQWNbP8-CwsrU-57">
          <mxGeometry y="26" width="170" height="44" as="geometry" />
        </mxCell>
        <mxCell id="U56kYTCRQWNbP8-CwsrU-59" value="" style="line;strokeWidth=1;fillColor=none;align=left;verticalAlign=middle;spacingTop=-1;spacingLeft=3;spacingRight=3;rotatable=0;labelPosition=right;points=[];portConstraint=eastwest;strokeColor=inherit;" vertex="1" parent="U56kYTCRQWNbP8-CwsrU-57">
          <mxGeometry y="70" width="170" height="90" as="geometry" />
        </mxCell>
        <mxCell id="U56kYTCRQWNbP8-CwsrU-60" value="+ getPerHourFee()&lt;div&gt;+ isVehicleSupported(Vehicle)&lt;/div&gt;&lt;div&gt;&lt;br&gt;&lt;div&gt;&lt;br&gt;&lt;/div&gt;&lt;/div&gt;" style="text;html=1;align=center;verticalAlign=middle;resizable=0;points=[];autosize=1;strokeColor=none;fillColor=none;" vertex="1" parent="U56kYTCRQWNbP8-CwsrU-57">
          <mxGeometry y="160" width="170" height="70" as="geometry" />
        </mxCell>
        <mxCell id="U56kYTCRQWNbP8-CwsrU-61" value="Extends" style="endArrow=block;endSize=16;endFill=0;html=1;rounded=0;exitX=0.5;exitY=0;exitDx=0;exitDy=0;entryX=0.418;entryY=1.014;entryDx=0;entryDy=0;entryPerimeter=0;" edge="1" parent="WIyWlLk6GJQsqaUBKTNV-1" source="U56kYTCRQWNbP8-CwsrU-53" target="U56kYTCRQWNbP8-CwsrU-8">
          <mxGeometry width="160" relative="1" as="geometry">
            <mxPoint x="1230" y="740" as="sourcePoint" />
            <mxPoint x="1390" y="740" as="targetPoint" />
          </mxGeometry>
        </mxCell>
        <mxCell id="U56kYTCRQWNbP8-CwsrU-62" value="Extends" style="endArrow=block;endSize=16;endFill=0;html=1;rounded=0;exitX=0.453;exitY=-0.022;exitDx=0;exitDy=0;exitPerimeter=0;entryX=0.494;entryY=1.071;entryDx=0;entryDy=0;entryPerimeter=0;" edge="1" parent="WIyWlLk6GJQsqaUBKTNV-1" source="U56kYTCRQWNbP8-CwsrU-57" target="U56kYTCRQWNbP8-CwsrU-8">
          <mxGeometry width="160" relative="1" as="geometry">
            <mxPoint x="1230" y="740" as="sourcePoint" />
            <mxPoint x="1710" y="710" as="targetPoint" />
          </mxGeometry>
        </mxCell>
        <mxCell id="U56kYTCRQWNbP8-CwsrU-64" value="&lt;b&gt;Vehicle&lt;/b&gt;" style="swimlane;fontStyle=0;childLayout=stackLayout;horizontal=1;startSize=26;fillColor=none;horizontalStack=0;resizeParent=1;resizeParentMax=0;resizeLast=0;collapsible=1;marginBottom=0;whiteSpace=wrap;html=1;" vertex="1" parent="WIyWlLk6GJQsqaUBKTNV-1">
          <mxGeometry x="2170" y="510" width="140" height="52" as="geometry" />
        </mxCell>
        <mxCell id="U56kYTCRQWNbP8-CwsrU-65" value="- vehicleNumber: String" style="text;strokeColor=none;fillColor=none;align=left;verticalAlign=top;spacingLeft=4;spacingRight=4;overflow=hidden;rotatable=0;points=[[0,0.5],[1,0.5]];portConstraint=eastwest;whiteSpace=wrap;html=1;" vertex="1" parent="U56kYTCRQWNbP8-CwsrU-64">
          <mxGeometry y="26" width="140" height="26" as="geometry" />
        </mxCell>
        <mxCell id="U56kYTCRQWNbP8-CwsrU-68" value="" style="endArrow=diamondThin;endFill=0;endSize=24;html=1;rounded=0;entryX=0;entryY=0.5;entryDx=0;entryDy=0;" edge="1" parent="WIyWlLk6GJQsqaUBKTNV-1">
          <mxGeometry width="160" relative="1" as="geometry">
            <mxPoint x="1800" y="560" as="sourcePoint" />
            <mxPoint x="2170" y="556.5" as="targetPoint" />
          </mxGeometry>
        </mxCell>
        <mxCell id="U56kYTCRQWNbP8-CwsrU-77" value="&lt;b&gt;Car&lt;/b&gt;" style="swimlane;fontStyle=0;childLayout=stackLayout;horizontal=1;startSize=26;fillColor=none;horizontalStack=0;resizeParent=1;resizeParentMax=0;resizeLast=0;collapsible=1;marginBottom=0;whiteSpace=wrap;html=1;" vertex="1" parent="WIyWlLk6GJQsqaUBKTNV-1">
          <mxGeometry x="2060" y="678" width="140" height="52" as="geometry" />
        </mxCell>
        <mxCell id="U56kYTCRQWNbP8-CwsrU-78" value="- vehicleNumber: String" style="text;strokeColor=none;fillColor=none;align=left;verticalAlign=top;spacingLeft=4;spacingRight=4;overflow=hidden;rotatable=0;points=[[0,0.5],[1,0.5]];portConstraint=eastwest;whiteSpace=wrap;html=1;" vertex="1" parent="U56kYTCRQWNbP8-CwsrU-77">
          <mxGeometry y="26" width="140" height="26" as="geometry" />
        </mxCell>
        <mxCell id="U56kYTCRQWNbP8-CwsrU-79" value="&lt;b&gt;Bike&lt;/b&gt;" style="swimlane;fontStyle=0;childLayout=stackLayout;horizontal=1;startSize=26;fillColor=none;horizontalStack=0;resizeParent=1;resizeParentMax=0;resizeLast=0;collapsible=1;marginBottom=0;whiteSpace=wrap;html=1;" vertex="1" parent="WIyWlLk6GJQsqaUBKTNV-1">
          <mxGeometry x="2320" y="678" width="140" height="52" as="geometry" />
        </mxCell>
        <mxCell id="U56kYTCRQWNbP8-CwsrU-80" value="- vehicleNumber: String" style="text;strokeColor=none;fillColor=none;align=left;verticalAlign=top;spacingLeft=4;spacingRight=4;overflow=hidden;rotatable=0;points=[[0,0.5],[1,0.5]];portConstraint=eastwest;whiteSpace=wrap;html=1;" vertex="1" parent="U56kYTCRQWNbP8-CwsrU-79">
          <mxGeometry y="26" width="140" height="26" as="geometry" />
        </mxCell>
        <mxCell id="U56kYTCRQWNbP8-CwsrU-81" value="Extends" style="endArrow=block;endSize=16;endFill=0;html=1;rounded=0;entryX=0.471;entryY=1.115;entryDx=0;entryDy=0;entryPerimeter=0;" edge="1" parent="WIyWlLk6GJQsqaUBKTNV-1" target="U56kYTCRQWNbP8-CwsrU-65">
          <mxGeometry width="160" relative="1" as="geometry">
            <mxPoint x="2130" y="670" as="sourcePoint" />
            <mxPoint x="2010" y="740" as="targetPoint" />
          </mxGeometry>
        </mxCell>
        <mxCell id="U56kYTCRQWNbP8-CwsrU-82" value="Extends" style="endArrow=block;endSize=16;endFill=0;html=1;rounded=0;" edge="1" parent="WIyWlLk6GJQsqaUBKTNV-1">
          <mxGeometry width="160" relative="1" as="geometry">
            <mxPoint x="2380" y="670" as="sourcePoint" />
            <mxPoint x="2250" y="570" as="targetPoint" />
          </mxGeometry>
        </mxCell>
      </root>
    </mxGraphModel>
  </diagram>
</mxfile>
